<?xml version="1.0" encoding="UTF-8" standalone="no"?>
<!-- Created with Inkscape (http://www.inkscape.org/) -->
<svg
   xmlns:dc="http://purl.org/dc/elements/1.1/"
   xmlns:cc="http://creativecommons.org/ns#"
   xmlns:rdf="http://www.w3.org/1999/02/22-rdf-syntax-ns#"
   xmlns:svg="http://www.w3.org/2000/svg"
   xmlns="http://www.w3.org/2000/svg"
   xmlns:sodipodi="http://sodipodi.sourceforge.net/DTD/sodipodi-0.dtd"
   xmlns:inkscape="http://www.inkscape.org/namespaces/inkscape"
   width="744.09448819"
   height="1052.3622047"
   id="svg2"
   sodipodi:version="0.32"
   inkscape:version="0.46"
   sodipodi:docname="poufpoufproduction.svg"
   inkscape:output_extension="org.inkscape.output.svg.inkscape">
  <defs
     id="defs4">
    <inkscape:perspective
       sodipodi:type="inkscape:persp3d"
       inkscape:vp_x="0 : 526.18109 : 1"
       inkscape:vp_y="0 : 1000 : 0"
       inkscape:vp_z="744.09448 : 526.18109 : 1"
       inkscape:persp3d-origin="372.04724 : 350.78739 : 1"
       id="perspective10" />
    <inkscape:perspective
       id="perspective2509"
       inkscape:persp3d-origin="0.5 : 0.33333333 : 1"
       inkscape:vp_z="1 : 0.5 : 1"
       inkscape:vp_y="0 : 1000 : 0"
       inkscape:vp_x="0 : 0.5 : 1"
       sodipodi:type="inkscape:persp3d" />
  </defs>
  <sodipodi:namedview
     id="base"
     pagecolor="#ffffff"
     bordercolor="#666666"
     borderopacity="1.0"
     gridtolerance="10000"
     guidetolerance="10"
     objecttolerance="10"
     inkscape:pageopacity="0.0"
     inkscape:pageshadow="2"
     inkscape:zoom="0.96896434"
     inkscape:cx="327.24331"
     inkscape:cy="1029.0328"
     inkscape:document-units="px"
     inkscape:current-layer="layer1"
     showgrid="false"
     inkscape:window-width="1079"
     inkscape:window-height="670"
     inkscape:window-x="0"
     inkscape:window-y="278" />
  <metadata
     id="metadata7">
    <rdf:RDF>
      <cc:Work
         rdf:about="">
        <dc:format>image/svg+xml</dc:format>
        <dc:type
           rdf:resource="http://purl.org/dc/dcmitype/StillImage" />
      </cc:Work>
    </rdf:RDF>
  </metadata>
  <g
     inkscape:label="Layer 1"
     inkscape:groupmode="layer"
     id="layer1">
    <rect
       style="opacity:1;fill:#ffffff;fill-opacity:1;fill-rule:nonzero;stroke:none;stroke-width:1.50000000000000000;stroke-linecap:butt;stroke-linejoin:miter;marker:none;marker-start:none;marker-mid:none;marker-end:none;stroke-miterlimit:4;stroke-dasharray:none;stroke-dashoffset:0;stroke-opacity:1;visibility:visible;display:inline;overflow:visible;enable-background:accumulate"
       id="rect3424"
       width="783.31061"
       height="94.946732"
       x="-7.2242079"
       y="-2.3721931" />
    <path
       d="M 90.584018,3.5671688 L 86.978691,9.4959296 L 77.471308,10.484056 L 70.874894,6.3980186 L 63.023292,9.2288683 L 63.877888,15.905401 L 58.109364,19.751084 L 47.079732,18.415777 L 41.738506,23.997358 L 44.329001,33.104149 L 47.346794,34.439455 L 46.839377,35.534406 L 33.91361,39.113028 L 33.406193,46.697569 L 36.664341,56.311776 L 49.750345,55.483885 L 50.097525,55.724241 L 41.925449,63.816198 L 44.756299,73.403699 C 44.756299,73.403699 49.37646,77.436324 50.33788,78.184096 C 51.299301,78.905162 52.634607,79.519402 53.596028,78.931868 C 54.557449,78.317627 65.373431,71.747919 65.373431,71.747919 L 75.04105,75.006067 L 75.04105,78.50457 L 76.723537,88.359132 L 89.649304,88.599487 L 94.242758,75.833957 L 105.94004,73.32358 L 116.62249,82.430371 L 126.12988,76.848789 L 127.19812,67.154464 L 123.96668,61.492765 L 126.53047,58.55509 L 140.31083,60.317695 L 142.55415,52.62633 L 144.07639,43.199066 L 133.6343,39.032909 L 139.88353,36.442415 L 141.40578,27.522567 L 137.88057,21.246627 L 125.54234,21.513688 L 123.03197,19.323785 L 123.37915,18.843075 L 124.12692,10.991473 L 116.94297,7.8134434 L 109.35843,11.819363 L 99.824339,9.4959296 L 98.675976,4.3149404 L 90.584018,3.5671688 z M 91.411908,23.436529 C 106.6077,23.276293 119.05275,30.860834 119.85394,41.276224 C 119.88064,41.436461 119.85394,41.623404 119.85394,41.783641 C 115.60766,49.875598 104.60474,56.178245 91.33179,57.219784 C 77.230953,58.314735 64.812603,53.10704 59.871969,44.96167 C 59.871969,34.279218 72.290319,24.74513 88.313997,23.516648 C 89.355536,23.436529 90.397075,23.436529 91.411908,23.436529 z"
       id="p2901"
       style="fill:#696868;fill-opacity:1;stroke:none" />
    <path
       d="M 60.860095,39.860799 L 33.726667,42.210939 L 33.406193,46.697569 L 33.993728,48.540292 L 60.352679,41.543286 C 60.512916,40.982457 60.646446,40.421628 60.860095,39.860799 z M 60.940214,46.537332 L 46.011487,48.887471 L 46.999614,55.377061 L 48.415039,55.564004 L 49.750345,55.483885 L 50.097525,55.724241 L 57.521829,56.632249 L 43.581229,69.584722 L 44.756299,73.403699 C 44.756299,73.403699 49.37646,77.436324 50.33788,78.184096 L 50.524823,78.264214 L 52.768138,79.172223 C 52.794844,79.172223 52.82155,79.172223 52.848256,79.172223 C 53.115318,79.145517 53.355673,79.065398 53.596028,78.931868 C 54.557449,78.317627 65.373431,71.747919 65.373431,71.747919 L 75.04105,75.006067 L 75.04105,78.50457 L 76.723537,88.359132 L 89.649304,88.599487 L 94.242758,75.833957 L 100.17152,74.578768 L 83.720543,57.219784 C 73.785862,56.391894 65.373431,52.332562 60.940214,46.537332 z M 127.46518,48.887471 L 114.69965,51.638203 L 112.42963,58.90227 L 106.34063,53.480926 C 101.93412,55.457179 96.833253,56.792486 91.33179,57.219784 C 90.210132,57.299902 89.141887,57.380021 88.073642,57.380021 L 103.42967,73.830997 L 105.94004,73.32358 L 116.62249,82.430371 L 126.12988,76.848789 L 127.19812,67.154464 L 123.96668,61.492765 L 126.53047,58.55509 L 131.39098,59.142625 C 129.7352,54.923057 127.46518,48.887471 127.46518,48.887471 z"
       id="p4330"
       style="fill:#f1f1f1;fill-opacity:0.27000002;stroke:none;display:inline" />
    <path
       d="M 58.536662,46.884512 L 51.753305,47.365222 C 51.753305,47.365222 49.803758,49.742068 45.931369,55.724241 L 49.750345,55.483885 L 50.097525,55.724241 L 49.937288,55.884477 L 55.278514,55.884477 L 57.601948,76.50161 C 61.073744,74.391826 65.373431,71.747919 65.373431,71.747919 L 75.04105,75.006067 L 75.04105,78.50457 L 75.548467,81.682599 L 85.990564,57.299902 C 76.189414,56.952723 67.616746,53.58775 62.542582,48.380055 L 58.536662,46.884512 z M 97.073608,56.391894 C 95.204179,56.76578 93.308043,57.059547 91.33179,57.219784 C 90.15672,57.326608 89.035063,57.380021 87.913405,57.380021 C 89.248712,59.38298 94.99053,67.822118 99.503866,74.739005 L 105.00533,73.510523 C 105.37921,70.01202 105.67298,66.326574 105.67298,66.326574 L 118.43851,63.575843 L 111.44151,57.887437 L 102.41483,60.90523 L 97.073608,56.391894 z"
       id="p4327"
       style="fill:#f1f1f1;fill-opacity:0.43999999;stroke:none;display:inline" />
    <path
       d="M 57.441711,55.377061 L 43.928409,61.813238 L 41.925449,63.816198 L 44.756299,73.403699 C 44.756299,73.403699 49.37646,77.436324 50.33788,78.184096 C 51.299301,78.905162 52.634607,79.519402 53.596028,78.931868 C 54.557449,78.317627 65.373431,71.747919 65.373431,71.747919 L 75.04105,75.006067 L 75.04105,78.50457 L 76.723537,88.359132 L 89.649304,88.599487 L 94.242758,75.833957 L 105.94004,73.32358 L 116.62249,82.430371 L 126.12988,76.848789 L 127.19812,67.154464 L 126.71741,66.326574 C 124.55422,66.273162 122.52455,67.234583 120.94889,68.169297 C 118.27827,69.718253 116.94297,68.836951 116.94297,68.836951 C 116.94297,68.836951 110.66703,62.56101 108.42371,61.893357 C 106.2071,61.225703 93.708635,64.083259 87.486107,62.988308 C 81.236873,61.866651 57.441711,55.377061 57.441711,55.377061 z"
       id="p4301"
       style="fill:#f1f1f1;fill-opacity:0.93999999;stroke:none;display:inline" />
    <path
       d="M 105.51274,64.323615 C 102.38813,64.350321 94.670056,66.513517 93.254631,66.647048 C 91.759088,66.780578 88.554352,79.412578 87.806581,79.412578 C 87.165634,79.412578 77.791782,78.905162 75.121169,78.744925 L 76.723537,88.359132 L 89.649304,88.599487 L 94.242758,75.833957 L 105.94004,73.32358 L 116.62249,82.430371 L 126.12988,76.848789 L 127.19812,67.154464 C 124.15362,69.104012 118.35839,72.655927 117.45038,72.655927 C 116.24861,72.655927 108.31689,65.151505 106.50087,64.403733 C 106.28722,64.296908 105.96675,64.323615 105.51274,64.323615 z"
       id="p3755"
       style="fill:#414141;fill-opacity:1;stroke:none;display:inline" />
    <path
       d="M 63.877888,62.641128 C 62.515876,62.641128 50.631648,70.225669 49.590109,70.065432 C 48.762219,69.958608 44.248883,65.845864 42.005568,63.73608 L 41.925449,63.816198 L 44.756299,73.403699 C 44.756299,73.403699 49.37646,77.436324 50.33788,78.184096 C 51.299301,78.905162 52.634607,79.519402 53.596028,78.931868 C 54.557449,78.317627 65.373431,71.747919 65.373431,71.747919 L 75.2547,75.139597 C 75.495055,70.813204 75.361524,66.673754 75.121169,66.326574 C 74.533634,65.418566 65.213195,62.641128 63.877888,62.641128 L 63.877888,62.641128 z"
       id="p3752"
       style="fill:#414141;fill-opacity:1;stroke:none;display:inline" />
    <path
       d="M 44.916536,46.377095 C 41.070853,46.296977 36.076806,46.510626 33.406193,46.61745 L 33.406193,46.697569 L 36.664341,56.311776 L 49.750345,55.483885 L 50.097525,55.724241 L 51.940248,53.961636 C 51.940248,53.961636 48.495157,47.285104 47.85421,46.61745 C 47.667267,46.457214 46.572316,46.403801 44.916536,46.377095 z M 50.097525,55.724241 L 49.670227,56.151539 C 49.670227,56.124833 49.750345,56.151539 49.750345,56.151539 L 50.097525,55.724241 z"
       id="p3859"
       style="fill:#494949;fill-opacity:1;stroke:none;display:inline" />
    <path
       d="M 34.207377,45.762854 C 34.207377,45.762854 47.587149,45.495793 47.747386,45.709442 C 48.495157,46.590744 52.314134,52.973509 52.314134,52.973509"
       id="p3862"
       style="fill:none;stroke:#f6f6f6;stroke-width:0.60000002;stroke-linecap:round;stroke-linejoin:miter;stroke-miterlimit:4;stroke-dasharray:none;stroke-opacity:1;display:inline" />
    <path
       d="M 127.5453,49.288063 L 120.52159,56.311776 L 123.96668,61.492765 L 126.53047,58.55509 L 140.31083,60.317695 L 142.55415,52.62633 L 142.82121,51.210905 L 127.5453,49.288063 z"
       id="p3865"
       style="fill:#2c2c2c;fill-opacity:1;stroke:none;display:inline" />
    <path
       d="M 127.41177,49.207945 L 126.71741,58.55509 L 140.31083,60.317695 L 142.55415,52.62633 L 142.82121,51.210905 L 127.41177,49.207945 z"
       id="p3985"
       style="fill:#656565;fill-opacity:0.41999996;stroke:none;display:inline" />
    <path
       d="M 142.82121,51.210905 L 127.5453,49.288063 L 120.28123,56.498718 L 123.69962,61.679708"
       id="p3865-1"
       style="fill:none;stroke:#767676;stroke-width:0.30000001;stroke-linejoin:round;stroke-miterlimit:4;stroke-dasharray:none;stroke-opacity:1;display:inline" />
    <path
       d="M 127.78566,47.79252 L 120.121,55.564004 L 120.68183,56.445306 L 127.62542,49.314769 L 140.89837,50.997256 L 141.11201,49.92901 L 127.78566,47.79252 L 127.78566,47.79252 z"
       id="p3868"
       style="fill:#fafafa;fill-opacity:0.93999999;stroke:none;marker:none;visibility:visible;display:inline;overflow:visible;enable-background:accumulate" />
    <path
       d="M 141.40578,27.602686 L 131.20404,31.261426 L 131.79157,38.018076 L 133.98148,38.872673 L 139.88353,36.442415 L 141.40578,27.602686 z"
       id="p3871"
       style="fill:#171717;fill-opacity:1;stroke:none;display:inline" />
    <path
       d="M 131.39098,30.513654 L 140.81825,27.068563"
       id="p3874"
       style="fill:none;stroke:#f5f5f5;stroke-width:0.30000001;stroke-linecap:round;stroke-linejoin:miter;stroke-miterlimit:4;stroke-dasharray:none;stroke-opacity:1;display:inline" />
    <path
       d="M 124.0468,11.579008 L 119.96076,16.866822 L 122.92514,19.537435 L 123.37915,18.843075 L 124.0468,11.579008 z"
       id="p3877"
       style="fill:#151515;fill-opacity:1;stroke:none;display:inline" />
    <path
       d="M 63.023292,9.2288683 L 63.877888,15.905401 L 65.613787,14.837156 L 63.023292,9.2288683 z"
       id="p3880"
       style="fill:#151515;fill-opacity:1;stroke:none;display:inline" />
    <path
       d="M 63.877888,62.641128 L 65.533668,71.828037 L 75.308112,75.166303 C 75.521761,70.813204 75.361524,66.673754 75.121169,66.326574 C 74.533634,65.418566 65.213195,62.641128 63.877888,62.641128 z"
       id="p4214"
       style="fill:#2f2e2e;fill-opacity:0.61000001;stroke:none;display:inline" />
    <path
       d="M 49.616815,70.092139 C 50.097525,72.388866 51.005533,78.023859 52.34084,79.145517"
       id="p4240"
       style="fill:none;stroke:#6f6f6f;stroke-width:0.5;stroke-linecap:butt;stroke-linejoin:miter;stroke-miterlimit:4;stroke-dasharray:none;stroke-opacity:0.47000002" />
    <path
       d="M 63.744357,62.774659 L 65.533668,71.881449"
       id="p4242"
       style="fill:none;stroke:#6f6f6f;stroke-width:0.5;stroke-linecap:butt;stroke-linejoin:miter;stroke-miterlimit:4;stroke-dasharray:none;stroke-opacity:0.25" />
    <path
       d="M 74.987638,75.059479 C 75.227993,70.70638 75.094463,66.593636 74.854108,66.21975 C 74.266573,65.338447 65.213195,62.641128 63.877888,62.641128 C 62.515876,62.641128 50.631648,70.225669 49.590109,70.065432 C 48.762219,69.958608 44.248883,65.845864 42.005568,63.73608 L 41.925449,63.816198"
       id="p3752-2"
       style="fill:none;stroke:#505050;stroke-width:0.40000001;stroke-miterlimit:4;stroke-dasharray:none;stroke-opacity:1;display:inline" />
    <path
       d="M 106.1804,64.403733 L 106.10028,73.510523 L 112.10916,78.584688 L 111.01421,67.822118 C 109.09137,66.21975 107.24864,64.6975 106.50087,64.403733 C 106.44746,64.377027 106.28722,64.403733 106.1804,64.403733 z"
       id="p4368"
       style="fill:#121212;fill-opacity:0.27000002;stroke:none;display:inline" />
    <path
       d="M 93.655223,66.566929 C 93.548399,66.593636 93.308043,66.647048 93.254631,66.647048 C 92.132974,66.753872 90.023189,73.750878 88.741295,77.3295 C 88.714589,77.356206 88.741295,77.409618 88.741295,77.409618 L 89.408948,88.599487 L 89.649304,88.599487 L 93.922284,76.741965 L 93.655223,66.566929 z"
       id="p4366"
       style="fill:#090909;fill-opacity:0.48999999;stroke:none;display:inline" />
    <path
       d="M 116.91626,82.216722 L 117.26344,72.736045"
       id="p4372"
       style="fill:none;stroke:#b7b7b7;stroke-width:0.60000002;stroke-linecap:butt;stroke-linejoin:miter;stroke-miterlimit:4;stroke-dasharray:none;stroke-opacity:0.22000002;display:inline" />
    <path
       d="M 127.19812,67.154464 C 124.15362,69.104012 118.35839,72.655927 117.45038,72.655927 C 116.24861,72.655927 108.31689,65.151505 106.50087,64.403733 C 106.28722,64.296908 105.96675,64.323615 105.51274,64.323615 C 102.38813,64.350321 94.670056,66.513517 93.254631,66.647048 C 91.759088,66.780578 88.554352,79.412578 87.806581,79.412578 C 87.165634,79.412578 77.791782,78.905162 75.121169,78.744925"
       id="p3755-3"
       style="fill:none;stroke:#505050;stroke-width:0.40000001;stroke-miterlimit:4;stroke-dasharray:none;stroke-opacity:1;display:inline" />
    <path
       d="M 141.40578,27.602686 L 131.20404,31.261426 L 131.79157,38.018076 L 133.98148,38.872673"
       id="p3871-2"
       style="fill:none;stroke:#424242;stroke-width:0.40000001;stroke-linejoin:round;stroke-miterlimit:4;stroke-dasharray:none;stroke-opacity:1;display:inline" />
    <path
       d="M 124.0468,11.579008 L 119.96076,16.866822 L 122.92514,19.537435"
       id="p3877-9"
       style="fill:none;stroke:#232323;stroke-width:0.30000001;stroke-linejoin:round;stroke-miterlimit:4;stroke-dasharray:none;stroke-opacity:1;display:inline" />
    <path
       d="M 97.260551,4.1547036 L 92.239798,11.071591 L 94.082521,17.42765 L 111.94892,26.507734 L 133.39394,35.107108 L 131.12392,29.258466 L 121.37619,25.759963 L 121.18924,22.341578 L 115.7679,15.745164 L 109.01125,11.739245 L 108.61066,11.659126 L 107.27535,19.831202 L 101.58694,18.923194 L 97.073608,11.071591 L 99.744221,9.1487499 L 98.675976,4.3149404 L 97.260551,4.1547036 z"
       id="p4461"
       style="fill:#282828;fill-opacity:0.18000004;stroke:none;display:inline" />
    <path
       d="M 94.589938,3.8876423 L 91.33179,9.8965216 L 93.922284,16.920234 L 98.248677,18.762957 L 101.50682,9.8965216 L 99.824339,9.4959296 L 98.675976,4.3149404 L 94.589938,3.8876423 z M 116.94297,7.8134434 L 109.35843,11.819363 L 108.50383,11.659126 L 106.92817,20.498855 L 113.09729,26.107142 L 123.37915,18.495895 L 124.12692,10.991473 L 116.94297,7.8134434 z M 137.88057,21.246627 L 130.64321,21.43357 L 134.54231,26.267379 L 135.31678,31.341544 L 121.96372,25.332665 L 117.18332,26.107142 L 120.28123,38.68573 L 143.56898,46.296977 L 144.07639,43.199066 L 133.6343,39.032909 L 139.88353,36.442415 L 141.40578,27.522567 L 137.88057,21.246627 z"
       id="p4464"
       style="fill:#282828;fill-opacity:0.23999999;stroke:none;display:inline" />
    <path
       d="M 90.98461,14.837156 C 89.916365,14.837156 88.84812,14.917274 87.726462,14.997392 C 70.020298,16.332699 56.346759,26.721383 57.281474,38.285138 C 57.65536,43.012123 60.459504,47.178279 64.785897,50.383015 C 62.756231,48.780647 61.073744,46.96463 59.871969,44.96167 C 59.871969,34.279218 72.290319,24.74513 88.313997,23.516648 C 89.355536,23.436529 90.397075,23.436529 91.411908,23.436529 C 106.52758,23.276293 118.91922,30.780715 119.85394,41.115988 C 121.05571,38.68573 121.66995,36.095235 121.4563,33.451328 C 120.575,22.608639 107.24864,14.676919 90.98461,14.837156 z"
       id="p2903-9"
       style="fill:#414141;fill-opacity:1;fill-rule:evenodd;stroke:none;marker:none;visibility:visible;display:inline;overflow:visible;enable-background:accumulate" />
    <path
       d="M 90.98461,14.837156 C 89.916365,14.837156 88.84812,14.917274 87.726462,14.997392 C 79.901566,15.584927 72.877854,17.961773 67.536628,21.43357 C 69.646412,23.409823 72.023258,25.252546 74.56034,26.935033 C 78.619672,25.119016 83.266539,23.890534 88.313997,23.516648 C 89.355536,23.436529 90.397075,23.436529 91.411908,23.436529 C 99.95787,23.329705 107.62253,25.733257 112.85693,29.685764 C 114.72636,28.590813 116.51567,27.148682 118.35839,25.599726 C 113.39105,18.976606 102.97566,14.703625 90.98461,14.837156 z"
       id="p4288"
       style="fill:#585858;fill-opacity:0.75;stroke:none;display:inline" />
    <path
       d="M 91.251671,21.593807 C 86.951984,21.593807 81.744289,22.341578 74.800695,23.596766 C 67.93722,24.825248 63.317059,26.641265 60.352679,28.003278 C 60.352679,28.029984 60.379385,28.083396 60.352679,28.110102 C 58.13607,31.234719 56.987707,34.67981 57.281474,38.285138 C 57.65536,43.012123 60.459504,47.178279 64.785897,50.383015 C 62.756231,48.780647 61.073744,46.96463 59.871969,44.96167 C 59.871969,34.279218 72.290319,24.74513 88.313997,23.516648 C 89.355536,23.436529 90.397075,23.436529 91.411908,23.436529 C 95.765007,23.383117 99.877751,23.970652 103.5899,25.09231 C 99.904458,22.662052 96.192305,21.593807 91.251671,21.593807 z"
       id="p4553"
       style="fill:#262626;fill-opacity:0.38999999;stroke:none;display:inline" />
    <path
       d="M 90.98461,14.837156 C 89.916365,14.837156 88.84812,14.917274 87.726462,14.997392 C 70.020298,16.332699 56.346759,26.721383 57.281474,38.285138 C 57.65536,43.012123 60.459504,47.178279 64.785897,50.383015 C 62.756231,48.780647 61.073744,46.96463 59.871969,44.96167 C 59.871969,34.279218 72.290319,24.74513 88.313997,23.516648 C 89.355536,23.436529 90.397075,23.436529 91.411908,23.436529 C 106.52758,23.276293 118.91922,30.780715 119.85394,41.115988 C 121.05571,38.68573 121.66995,36.095235 121.4563,33.451328 C 120.575,22.608639 107.24864,14.676919 90.98461,14.837156 z"
       id="p2903-9-2"
       style="fill:none;stroke:#a3a3a3;stroke-width:0.60000002;marker:none;stroke-miterlimit:4;stroke-dasharray:none;stroke-opacity:0.93000034;visibility:visible;display:inline;overflow:visible;enable-background:accumulate" />
    <path
       d="M 121.4563,33.451328 C 120.575,22.608639 107.24864,14.676919 90.98461,14.837156 C 89.916365,14.837156 88.84812,14.917274 87.726462,14.997392 C 78.886733,15.665046 71.035131,18.60272 65.506962,22.795582"
       id="p2903-9-7"
       style="fill:none;stroke:#f3f3f3;stroke-width:0.89999998;stroke-linecap:round;marker:none;stroke-miterlimit:4;stroke-dasharray:none;stroke-opacity:0.93000034;visibility:visible;display:inline;overflow:visible;enable-background:accumulate" />
    <path
       d="M 42.085686,23.676885 L 41.738506,23.997358 L 44.329001,33.104149 L 47.587149,34.412749 L 50.578235,27.629392 L 42.085686,23.676885 z"
       id="p4523"
       style="fill:#1e1e1e;fill-opacity:0.51999996;stroke:none;display:inline" />
    <path
       d="M 42.219217,23.810415 L 50.551529,27.629392"
       id="p4549"
       style="fill:none;stroke:#f7f7f7;stroke-width:0.40000001;stroke-linecap:butt;stroke-linejoin:miter;stroke-miterlimit:4;stroke-dasharray:none;stroke-opacity:0.95" />
    <path
       d="M 90.584018,3.5671688 L 86.978691,9.4959296 L 77.471308,10.484056 L 70.874894,6.3980186 L 63.023292,9.2288683 L 63.877888,15.905401 L 58.109364,19.751084 L 47.079732,18.415777 L 41.738506,23.997358 L 44.329001,33.104149 L 47.346794,34.439455 L 46.839377,35.534406 L 33.91361,39.113028 L 33.406193,46.697569 L 36.664341,56.311776 L 49.750345,55.483885 L 50.097525,55.724241 L 41.925449,63.816198 L 44.756299,73.403699 C 44.756299,73.403699 49.37646,77.436324 50.33788,78.184096 C 51.299301,78.905162 52.634607,79.519402 53.596028,78.931868 C 54.557449,78.317627 65.373431,71.747919 65.373431,71.747919 L 75.04105,75.006067 L 75.04105,78.50457 L 76.723537,88.359132 L 89.649304,88.599487 L 94.242758,75.833957 L 105.94004,73.32358 L 116.62249,82.430371 L 126.12988,76.848789 L 127.19812,67.154464 L 123.96668,61.492765 L 126.53047,58.55509 L 140.31083,60.317695 L 142.55415,52.62633 L 144.07639,43.199066 L 133.6343,39.032909 L 139.88353,36.442415 L 141.40578,27.522567 L 137.88057,21.246627 L 125.54234,21.513688 L 123.03197,19.323785 L 123.37915,18.843075 L 124.12692,10.991473 L 116.94297,7.8134434 L 109.35843,11.819363 L 99.824339,9.4959296 L 98.675976,4.3149404 L 90.584018,3.5671688 z M 91.411908,23.436529 C 106.6077,23.276293 119.05275,30.860834 119.85394,41.276224 C 119.88064,41.436461 119.85394,41.623404 119.85394,41.783641 C 115.60766,49.875598 104.60474,56.178245 91.33179,57.219784 C 77.230953,58.314735 64.812603,53.10704 59.871969,44.96167 C 59.871969,34.279218 72.290319,24.74513 88.313997,23.516648 C 89.355536,23.436529 90.397075,23.436529 91.411908,23.436529 z"
       id="stroke01"
       style="fill:none;stroke:#101010;stroke-width:1.5;stroke-linejoin:round;stroke-miterlimit:4;stroke-dasharray:none;stroke-opacity:1" />
    <path
       style="font-size:56px;font-style:normal;font-variant:normal;font-weight:normal;font-stretch:normal;fill:#5a5959;fill-opacity:1;stroke:none;stroke-width:1.29999995;stroke-linecap:butt;stroke-linejoin:miter;stroke-miterlimit:4;stroke-dasharray:none;stroke-opacity:1;font-family:Arial Black;-inkscape-font-specification:Arial Black"
       d="M 218.39839,2.09375 C 203.74538,0.46826532 194.21143,16.231086 198.37984,29.291026 C 198.77852,39.956215 219.55562,44.208667 202.08955,42.71875 C 196.5065,42.211019 200.74976,51.529598 199.42964,55.284788 C 199.42964,64.460692 199.42964,73.636596 199.42964,82.8125 C 203.44679,81.566838 213.00927,85.866504 211.86714,79.461557 C 213.19344,75.735829 208.92193,65.753401 214.56537,66.76759 C 219.72402,70.50964 221.36177,77.539742 224.83589,82.8125 C 228.58276,81.909759 238.3419,84.678518 238.07061,81.322012 C 236.67914,74.91733 226.48522,65.488422 228.39544,64.41017 C 244.78489,59.097393 229.40906,42.600467 227.61791,42.158859 C 245.13573,35.754702 242.66392,4.0273849 223.11273,2.4334944 L 220.82789,2.17877 L 218.39839,2.09375 z M 408.36714,2.09375 C 393.71673,0.47903755 384.23758,16.244046 388.36421,29.291026 C 388.01684,38.723242 407.359,43.36743 390.90516,42.789884 C 370.59448,47.208929 373.59764,83.601426 394.99884,83.410278 C 403.40661,88.225088 424.00678,72.060598 411.46241,68.262977 C 402.64305,61.561816 401.87245,81.97568 391.74214,71.75 C 382.44435,59.567633 398.39282,43.348583 406.59624,56.57305 C 418.67085,57.512354 415.91276,47.104246 406.30464,43.46875 C 423.97643,47.172386 434.46646,26.409654 427.10134,12.124625 C 423.8685,5.0046022 415.78827,1.8607549 408.36714,2.09375 z M 158.74214,2.78125 C 158.74214,29.458333 158.74214,56.135417 158.74214,82.8125 C 162.75929,81.566838 172.32177,85.866504 171.17964,79.461557 C 172.2069,75.251236 168.18461,65.991372 175.36832,67.9375 C 190.33868,72.492499 200.46981,49.44782 185.21477,43.52835 C 179.97857,40.81232 168.23565,46.663661 171.17964,36.854599 C 170.51382,31.003287 170.53729,25.841258 177.88153,28 C 196.61283,31.61192 197.63225,-0.68310906 178.4669,2.78125 C 171.89198,2.78125 165.31706,2.78125 158.74214,2.78125 z M 245.99214,2.78125 C 246.66507,13.778532 244.25686,25.309531 248.12886,35.815435 C 250.33558,41.308615 261.12186,42.520648 250.34343,44.206378 C 233.63939,52.3182 238.24556,83.541677 258.18732,83.365601 C 276.0665,87.521973 287.22144,66.653571 279.66383,52.062124 C 276.89083,44.592518 264.08102,43.504494 277.39739,40.942384 C 287.91139,33.200286 283.41929,19.34317 284.39839,8.2573108 C 286.84389,0.63551528 279.2271,3.0760043 274.34556,2.78125 C 269.45002,3.1172764 273.25777,12.156592 272.05464,16.185024 C 272.09524,23.328816 273.93656,36.919149 262.33099,33.770514 C 255.70603,29.552228 259.23618,20.503246 258.33589,13.846226 C 257.32805,9.7695115 261.31913,0.69388336 254.14721,2.78125 C 251.42885,2.78125 248.7105,2.78125 245.99214,2.78125 z M 292.71089,2.78125 C 292.71089,16.09375 292.71089,29.40625 292.71089,42.71875 C 285.64392,40.90496 289.76805,50.282279 288.67964,54.447052 C 288.67964,63.902201 288.67964,73.357351 288.67964,82.8125 C 300.04707,81.84704 314.24583,86.265992 322.34172,75.858403 C 329.38117,64.628811 325.71171,43.110524 309.67071,42.809837 C 301.66625,44.934059 306.42148,34.617856 305.14839,30.152712 C 303.52903,23.406344 312.94938,27.69969 316.87669,26.5 C 322.50208,29.394722 322.56645,16.057275 317.3287,18.40625 C 313.40631,17.151552 303.89965,21.481126 305.14839,15.055307 C 303.53098,8.3121074 312.95164,12.60698 316.87669,11.40625 C 324.00503,13.506518 323.93378,8.4072073 323.33589,2.78125 C 313.12756,2.78125 302.91922,2.78125 292.71089,2.78125 z M 348.71089,2.78125 C 348.71089,16.145833 348.71089,29.510417 348.71089,42.875 C 353.86025,42.815769 360.54934,41.21682 358.11714,48.739151 C 357.41917,56.583474 359.79905,65.183721 356.30464,72.375 C 344.52302,79.543621 343.49345,64.204848 344.42964,56.296934 C 343.34474,52.297283 346.62915,43.928322 342.75417,42.71875 C 338.12358,43.33014 329.70562,40.154161 332.05464,47.745165 C 333.01939,58.579019 328.85952,71.711125 337.88081,80.018557 C 349.62599,88.163735 372.23598,83.038949 370.49214,65.787264 C 370.49214,58.097759 370.49214,50.408255 370.49214,42.71875 C 365.35016,42.791429 358.71217,44.360124 361.14839,36.854599 C 360.48257,31.003287 360.50604,25.841258 367.85028,28 C 386.57649,31.611083 387.65679,-0.67517956 368.4669,2.78125 C 361.88157,2.78125 355.29623,2.78125 348.71089,2.78125 z M 435.96089,2.78125 C 436.63665,13.77942 434.21096,25.315422 438.12886,35.815435 C 447.76755,43.962727 447.65072,42.795397 436.41407,42.71875 C 430.76301,42.71875 425.11195,42.71875 419.46089,42.71875 C 419.51488,47.921559 417.65653,55.036715 425.32504,52.625 C 432.45364,50.542469 432.9307,55.11148 432.08589,61.002359 C 432.08589,68.272406 432.08589,75.542453 432.08589,82.8125 C 436.08045,81.565078 445.62829,85.870938 444.46089,79.461557 C 444.46089,70.516038 444.46089,61.570519 444.46089,52.625 C 448.19993,51.30755 457.44065,55.491791 457.11714,50.111792 C 454.31234,40.972924 466.63445,40.909457 463.24214,50.289623 C 463.24214,61.130582 463.24214,71.971541 463.24214,82.8125 C 467.24803,81.565992 476.80311,85.86867 475.64839,79.461557 C 475.64839,67.213954 475.64839,54.966352 475.64839,42.71875 C 469.91429,42.194334 457.15206,44.661593 469.80464,38.9375 C 477.35396,29.859389 473.4082,17.39893 474.39839,6.581839 C 476.09548,-0.29154364 466.68935,3.9382832 462.67009,2.78125 C 461.1616,6.5147462 462.45413,13.049254 462.02339,17.860496 C 464.50948,26.584895 457.57829,41.650543 448.77533,30.183603 C 447.83339,21.108734 448.5686,11.908945 448.33589,2.78125 C 444.21089,2.78125 440.08589,2.78125 435.96089,2.78125 z M 482.71089,2.78125 C 482.71089,16.145833 482.71089,29.510417 482.71089,42.875 C 486.72804,41.629338 496.29052,45.929004 495.14839,39.524057 C 496.41366,35.610243 492.36307,26.38056 497.6616,26.5 C 501.57263,25.233954 510.80231,29.286549 510.67964,23.986792 C 513.11644,16.338872 505.59857,18.645616 500.62681,18.40625 C 494.52048,22.042582 492.52666,10.938768 497.6616,11.40625 C 502.88636,11.40625 508.11113,11.40625 513.33589,11.40625 C 514.07564,5.5575414 513.87426,0.64995462 506.634,2.78125 C 498.65963,2.78125 490.68526,2.78125 482.71089,2.78125 z M 171.17964,10.9375 C 182.30116,7.8982837 183.18004,22.900655 171.17964,19.875 C 171.17964,16.895833 171.17964,13.916667 171.17964,10.9375 z M 361.14839,10.9375 C 372.28523,7.9041744 373.1669,22.895306 361.14839,19.875 C 361.14839,16.895833 361.14839,13.916667 361.14839,10.9375 z M 218.36714,11.46875 C 237.56722,13.007948 220.788,48.610831 210.65034,28.120128 C 209.2596,21.983571 209.67036,11.333528 218.36714,11.46875 z M 408.33589,11.46875 C 427.57044,13.017543 410.78766,48.617461 400.61909,28.120128 C 399.21847,21.993391 399.68116,11.355112 408.33589,11.46875 z M 327.17964,23.9375 C 326.43989,29.786209 326.64127,34.693795 333.88153,32.5625 C 339.04,32.604384 345.79473,34.242532 343.36714,26.698349 C 343.96408,20.992449 334.59904,25.248525 330.8011,23.9375 C 329.59395,23.9375 328.38679,23.9375 327.17964,23.9375 z M 503.64839,42.03125 C 488.99798,40.41654 479.51883,56.181544 483.64546,69.228525 C 487.27299,88.619058 520.77699,88.463214 523.89934,68.863291 C 527.53056,55.340514 518.77155,40.639327 503.64839,42.03125 z M 531.30464,42.71875 C 531.30464,56.083333 531.30464,69.447917 531.30464,82.8125 C 535.54248,81.779117 544.84768,85.813087 542.92964,78.623821 C 542.92964,72.686714 542.92964,66.749607 542.92964,60.8125 C 547.94006,68.145833 552.95047,75.479167 557.96089,82.8125 C 562.20713,81.7771 571.52669,85.815013 569.61714,78.623821 C 569.61714,66.655464 569.61714,54.687107 569.61714,42.71875 C 565.3709,43.75415 556.05134,39.716237 557.96089,46.907429 C 557.96089,52.907036 557.96089,58.906643 557.96089,64.90625 C 552.92964,57.510417 547.89839,50.114583 542.86714,42.71875 C 539.01297,42.71875 535.15881,42.71875 531.30464,42.71875 z M 211.86714,50.8125 C 221.61161,47.299886 228.39093,60.468316 214.57268,58.96875 C 209.4739,60.554108 212.82097,53.486286 211.86714,50.8125 z M 171.17964,50.875 C 182.30116,47.835783 183.18004,62.838152 171.17964,59.8125 C 171.17964,56.833333 171.17964,53.854167 171.17964,50.875 z M 260.92964,51.40625 C 280.12296,53.003571 263.3371,88.540622 253.18158,68.057628 C 251.7745,61.914381 252.25186,51.275833 260.92964,51.40625 z M 503.61714,51.40625 C 522.80825,52.94387 506.05451,88.552649 495.90033,68.057628 C 494.49973,61.930894 494.96241,51.292609 503.61714,51.40625 z M 301.05464,51.8125 C 315.56393,47.035832 318.41533,75.032932 304.08589,73.71875 C 298.05773,74.547816 302.3374,65.069044 301.05464,61.152712 C 301.05464,58.039308 301.05464,54.925904 301.05464,51.8125 z"
       id="text2549" />
    <path
       style="fill:#757575;fill-opacity:0.70909089;fill-rule:evenodd;stroke:none;stroke-width:1px;stroke-linecap:butt;stroke-linejoin:miter;stroke-opacity:1"
       d="M 371.83589,2.53125 C 370.79424,2.4855273 369.66026,2.5652232 368.46089,2.78125 C 361.87556,2.78125 355.29623,2.78125 348.71089,2.78125 C 348.71089,16.145833 348.71089,29.510417 348.71089,42.875 C 353.86025,42.815769 360.54934,41.227669 358.11714,48.75 C 357.41917,56.594323 359.79905,65.183721 356.30464,72.375 C 344.52302,79.543621 343.49345,64.220414 344.42964,56.3125 C 343.34474,52.312851 346.61712,43.928322 342.74214,42.71875 C 338.11156,43.33014 329.70562,40.158996 332.05464,47.75 C 333.01939,58.583852 328.84585,71.723818 337.86714,80.03125 C 349.61232,88.17643 372.23598,83.032935 370.49214,65.78125 C 370.49214,58.091747 370.49214,50.408255 370.49214,42.71875 C 365.35016,42.791429 358.71217,44.349275 361.14839,36.84375 C 360.48257,30.992438 360.49165,25.841258 367.83589,28 C 385.3917,31.38539 387.46061,3.2170904 371.83589,2.53125 z M 292.71089,2.78125 C 292.71089,16.09375 292.71089,29.40625 292.71089,42.71875 C 285.64392,40.90496 289.76805,50.272727 288.67964,54.4375 C 288.67964,63.892649 288.67964,73.357351 288.67964,82.8125 C 300.04707,81.84704 314.24,86.251339 322.33589,75.84375 C 329.37534,64.614155 325.72064,43.113187 309.67964,42.8125 C 301.67519,44.936722 306.42148,34.621394 305.14839,30.15625 C 303.52903,23.409882 312.93983,27.69969 316.86714,26.5 C 322.49253,29.394722 322.57364,16.057275 317.33589,18.40625 C 313.41351,17.151552 303.89965,21.488319 305.14839,15.0625 C 303.53098,8.3193 312.94209,12.60698 316.86714,11.40625 C 323.99548,13.506518 323.93378,8.4072073 323.33589,2.78125 C 313.12756,2.78125 302.91922,2.78125 292.71089,2.78125 z M 284.33589,3.90625 L 266.24214,53.21875 C 274.38996,59.17083 266.6342,77.14828 258.61714,74.03125 L 255.27339,83.125 C 256.20618,83.270863 257.16697,83.383941 258.17964,83.375 C 276.05882,87.531372 287.206,66.653947 279.64839,52.0625 C 276.87539,44.592896 264.08202,43.49961 277.39839,40.9375 C 287.9124,33.195403 283.41929,19.335859 284.39839,8.25 C 285.09559,6.0770554 284.97786,4.7400248 284.33589,3.90625 z M 393.83589,7.21875 C 388.33507,12.66253 385.89063,21.451386 388.36714,29.28125 C 388.01977,38.713467 407.35223,43.358796 390.89839,42.78125 C 370.58771,47.200296 373.59094,83.597398 394.99214,83.40625 C 399.61203,86.051888 407.90633,82.365589 412.36714,77.875 C 412.7823,74.972423 413.07738,72.029526 413.24214,69.03125 C 412.74011,68.74748 412.16216,68.462299 411.46089,68.25 C 402.64152,61.548838 401.87245,81.97568 391.74214,71.75 C 382.44435,59.567633 398.38247,43.338033 406.58589,56.5625 C 409.60454,56.797326 411.70285,56.337975 412.99214,55.4375 C 412.74066,52.628385 412.36962,49.791173 411.83589,46.9375 C 410.43737,45.567241 408.56672,44.324672 406.30464,43.46875 C 408.00707,43.825544 409.6513,43.975918 411.21089,43.90625 C 410.50775,40.758148 409.64709,37.587021 408.55464,34.40625 C 405.92163,34.742198 403.07984,33.089198 400.61714,28.125 C 399.91878,25.070163 399.69828,20.906025 400.71089,17.5 C 400.7063,17.492172 400.71548,17.476578 400.71089,17.46875 C 398.70405,14.045311 396.41181,10.626576 393.83589,7.21875 z M 364.02339,10.53125 C 372.35251,10.558019 372.04016,22.612152 361.14839,19.875 C 361.14839,16.895833 361.14839,13.916667 361.14839,10.9375 C 362.19247,10.653126 363.16176,10.528481 364.02339,10.53125 z M 339.74214,23.625 C 336.84671,23.646637 332.94098,24.674952 330.80464,23.9375 C 329.59749,23.9375 328.38679,23.9375 327.17964,23.9375 C 326.43989,29.786209 326.62688,34.693795 333.86714,32.5625 C 339.0256,32.604384 345.79473,34.231683 343.36714,26.6875 C 343.6283,24.191169 341.99414,23.608171 339.74214,23.625 z M 303.64839,51.28125 C 315.86446,50.416437 317.51974,74.950796 304.08589,73.71875 C 298.05773,74.547816 302.3374,65.072582 301.05464,61.15625 C 301.05464,58.042844 301.05464,54.925904 301.05464,51.8125 C 301.96147,51.513958 302.83399,51.338904 303.64839,51.28125 z"
       id="path3393" />
    <path
       style="fill:#ffffff;fill-opacity:0.58636361;fill-rule:evenodd;stroke:none;stroke-width:1px;stroke-linecap:butt;stroke-linejoin:miter;stroke-opacity:1"
       d="M 158.74214,6.1875 C 158.74214,31.729166 158.74214,57.270834 158.74214,82.8125 C 162.75929,81.566838 172.32177,85.873697 171.17964,79.46875 C 172.2069,75.258431 168.18343,65.991372 175.36714,67.9375 C 190.33751,72.492499 200.46593,49.45072 185.21089,43.53125 C 179.97469,40.815219 168.23565,46.652812 171.17964,36.84375 C 170.51382,30.992438 170.5229,25.841258 177.86714,28 C 188.05557,29.964616 192.99445,21.311617 192.30464,13.5625 C 179.50649,10.446337 167.9785,8.0023036 158.74214,6.1875 z M 174.02339,10.53125 C 182.34082,10.555323 182.055,22.617 171.17964,19.875 C 171.17964,16.895833 171.17964,13.916667 171.17964,10.9375 C 172.22228,10.652573 173.16297,10.52876 174.02339,10.53125 z M 198.77339,15.1875 C 197.15633,19.627016 196.87798,24.615607 198.36714,29.28125 C 198.76582,39.94644 219.55196,44.208667 202.08589,42.71875 C 196.50284,42.211019 200.74976,51.52606 199.42964,55.28125 C 199.42964,64.457156 199.42964,73.636596 199.42964,82.8125 C 203.44679,81.566838 213.00927,85.873697 211.86714,79.46875 C 213.19344,75.743024 208.9112,65.767061 214.55464,66.78125 C 219.71329,70.523297 221.36177,77.539742 224.83589,82.8125 C 228.58276,81.909759 238.35718,84.669006 238.08589,81.3125 C 236.69441,74.907816 226.48817,65.484502 228.39839,64.40625 C 244.78783,59.093471 229.40829,42.597858 227.61714,42.15625 C 234.34128,39.698041 238.11886,33.502723 239.11714,26.71875 C 235.06068,25.399376 231.00268,24.175104 226.99214,22.96875 C 225.78894,31.921865 216.94737,40.856793 210.64839,28.125 C 210.00674,25.293756 209.76124,21.500277 210.52339,18.25 C 206.52452,17.163482 202.6086,16.15831 198.77339,15.1875 z M 246.46089,29.1875 C 246.80726,31.433117 247.31672,33.640723 248.11714,35.8125 C 250.32386,41.305681 261.11432,42.53302 250.33589,44.21875 C 233.63185,52.330571 238.23788,83.551076 258.17964,83.375 C 276.05882,87.531372 287.206,66.653947 279.64839,52.0625 C 276.8901,44.632521 264.23987,43.501932 277.21089,40.96875 C 267.21894,36.650649 256.84785,32.73755 246.46089,29.1875 z M 288.46089,46.09375 C 288.41911,48.766023 289.24197,52.285778 288.67964,54.4375 C 288.67964,63.892649 288.67964,73.357351 288.67964,82.8125 C 300.04707,81.84704 314.24,86.251339 322.33589,75.84375 C 323.73449,73.612651 324.70202,70.983773 325.24214,68.1875 C 321.43846,65.217006 317.36535,62.37567 313.05464,59.625 C 314.6446,66.304504 311.96368,74.441239 304.08589,73.71875 C 298.05773,74.547816 302.3374,65.072582 301.05464,61.15625 C 301.05464,58.29275 301.05464,55.425998 301.05464,52.5625 C 296.9742,50.329261 292.78674,48.165506 288.46089,46.09375 z M 215.33589,50.21875 C 222.97261,50.365591 226.67686,60.28087 214.58589,58.96875 C 209.48711,60.554108 212.82097,53.486286 211.86714,50.8125 C 213.0852,50.373423 214.24493,50.197773 215.33589,50.21875 z M 174.02339,50.46875 C 182.34082,50.492822 182.055,62.554497 171.17964,59.8125 C 171.17964,56.833333 171.17964,53.854167 171.17964,50.875 C 172.22228,50.590073 173.16297,50.46626 174.02339,50.46875 z M 260.92964,51.40625 C 280.12296,53.003571 263.33516,88.545494 253.17964,68.0625 C 251.77256,61.919256 252.25186,51.275833 260.92964,51.40625 z M 335.27339,76.96875 C 335.99008,78.040996 336.82959,79.075805 337.86714,80.03125 C 338.14754,80.225707 338.44983,80.414405 338.74214,80.59375 C 337.63128,79.374369 336.47793,78.156554 335.27339,76.96875 z"
       id="path3389" />
    <path
       style="fill:#c5c5c5;fill-opacity:0.70909089;fill-rule:evenodd;stroke:none;stroke-width:1px;stroke-linecap:butt;stroke-linejoin:miter;stroke-opacity:1"
       d="M 215.71089,2 C 202.60502,2.440224 194.45926,17.037556 198.36714,29.28125 C 198.76582,39.94644 219.55196,44.208667 202.08589,42.71875 C 200.35507,42.561347 199.57396,43.35216 199.27339,44.625 L 211.99214,75.28125 C 211.57016,71.03663 210.47144,66.047453 214.55464,66.78125 C 219.71329,70.523297 221.36177,77.539742 224.83589,82.8125 C 228.58276,81.909759 238.35718,84.669006 238.08589,81.3125 C 236.69441,74.907816 226.48817,65.484502 228.39839,64.40625 C 244.78783,59.093471 229.40829,42.597858 227.61714,42.15625 C 245.13497,35.752093 242.66833,4.0313905 223.11714,2.4375 L 220.83589,2.1875 L 218.39839,2.09375 C 217.48258,1.9921572 216.58461,1.9706517 215.71089,2 z M 255.89839,2.46875 C 255.40893,2.4815331 254.82076,2.5855594 254.14839,2.78125 C 251.43002,2.78125 248.7105,2.78125 245.99214,2.78125 C 246.66507,13.778532 244.24514,25.306596 248.11714,35.8125 C 250.32386,41.305681 261.11432,42.53302 250.33589,44.21875 C 235.60488,51.372427 237.45548,76.471974 251.77339,82.1875 L 282.05464,62.03125 C 282.03952,58.627291 281.27211,55.197406 279.64839,52.0625 C 276.87539,44.592896 264.08202,43.49961 277.39839,40.9375 C 287.9124,33.195403 283.41929,19.335859 284.39839,8.25 C 286.84389,0.62820441 279.21743,3.0760043 274.33589,2.78125 C 269.44035,3.1172764 273.25777,12.159068 272.05464,16.1875 C 272.09524,23.331292 273.94146,36.929885 262.33589,33.78125 C 255.71093,29.562963 259.23618,20.50077 258.33589,13.84375 C 257.42254,10.149228 260.62984,2.34518 255.89839,2.46875 z M 181.83589,2.53125 L 190.27339,22.90625 C 194.77936,15.491163 192.17127,2.9816207 181.83589,2.53125 z M 371.27339,2.53125 C 370.38947,2.5288194 369.45275,2.6025986 368.46089,2.78125 C 361.87556,2.78125 355.29623,2.78125 348.71089,2.78125 C 348.71089,7.7187499 348.71089,12.65625 348.71089,17.59375 L 371.27339,2.53125 z M 292.71089,2.78125 C 292.71089,16.09375 292.71089,29.40625 292.71089,42.71875 C 285.64392,40.90496 289.76805,50.272727 288.67964,54.4375 C 288.67964,55.489229 288.67964,56.542021 288.67964,57.59375 L 310.74214,42.875 C 310.39224,42.846896 310.04215,42.819295 309.67964,42.8125 C 301.67519,44.936722 306.42148,34.621394 305.14839,30.15625 C 303.52903,23.409882 312.93983,27.69969 316.86714,26.5 C 322.49253,29.394722 322.57364,16.057275 317.33589,18.40625 C 313.41351,17.151552 303.89965,21.488319 305.14839,15.0625 C 303.53098,8.3193 312.94209,12.60698 316.86714,11.40625 C 323.99548,13.506518 323.93378,8.4072073 323.33589,2.78125 C 313.12756,2.78125 302.91922,2.78125 292.71089,2.78125 z M 218.36714,11.46875 C 237.56722,13.007948 220.78605,48.615703 210.64839,28.125 C 209.25765,21.988442 209.67036,11.333528 218.36714,11.46875 z M 339.64839,23.625 C 336.76274,23.666761 332.91875,24.667277 330.80464,23.9375 C 329.59749,23.9375 328.38679,23.9375 327.17964,23.9375 C 326.78578,27.051503 326.65084,29.902408 327.71089,31.5625 L 339.64839,23.625 z M 215.33589,50.21875 C 222.97261,50.365591 226.67686,60.28087 214.58589,58.96875 C 209.48711,60.554108 212.82097,53.486286 211.86714,50.8125 C 213.0852,50.373423 214.24493,50.197773 215.33589,50.21875 z M 260.92964,51.40625 C 280.12296,53.003571 263.33516,88.545494 253.17964,68.0625 C 251.77256,61.919256 252.25186,51.275833 260.92964,51.40625 z"
       id="path3391" />
    <path
       style="fill:#454545;fill-opacity:0.6045455;fill-rule:evenodd;stroke:none;stroke-width:1px;stroke-linecap:butt;stroke-linejoin:miter;stroke-opacity:1"
       d="M 158.74214,32.40625 C 158.74214,49.208333 158.74214,66.010417 158.74214,82.8125 C 162.75929,81.566838 172.32177,85.873697 171.17964,79.46875 C 172.2069,75.258431 168.18343,65.991372 175.36714,67.9375 C 185.62144,71.057554 193.60103,61.217595 192.71089,52.8125 L 176.11714,42.84375 C 173.1419,42.88246 170.75129,42.477795 170.71089,39.59375 L 158.74214,32.40625 z M 174.02339,50.46875 C 182.34082,50.492822 182.055,62.554497 171.17964,59.8125 C 171.17964,56.833333 171.17964,53.854167 171.17964,50.875 C 172.22228,50.590073 173.16297,50.46626 174.02339,50.46875 z M 199.42964,56.84375 C 199.42964,65.498889 199.42964,74.157362 199.42964,82.8125 C 203.44679,81.566838 213.00927,85.873697 211.86714,79.46875 C 213.19344,75.743024 208.9112,65.767061 214.55464,66.78125 C 219.71329,70.523297 221.36177,77.539742 224.83589,82.8125 C 228.58276,81.909759 238.35718,84.669006 238.08589,81.3125 C 237.97782,80.81508 237.79035,80.309824 237.58589,79.78125 L 199.42964,56.84375 z"
       id="path3404" />
    <path
       style="fill:#2c2c2c;fill-opacity:0.36818183;fill-rule:evenodd;stroke:none;stroke-width:1px;stroke-linecap:butt;stroke-linejoin:miter;stroke-opacity:1"
       d="M 470.67964,2.53125 C 468.03784,2.5849047 464.68927,3.3597666 462.67964,2.78125 C 461.17115,6.5147462 462.45413,13.063758 462.02339,17.875 C 464.50948,26.599398 457.57635,41.65444 448.77339,30.1875 C 447.83144,21.112631 448.5686,11.908945 448.33589,2.78125 C 445.03381,2.78125 441.73172,2.78125 438.42964,2.78125 C 437.64366,3.6125164 436.85878,4.4490095 436.05464,5.3125 C 436.29158,15.536906 434.49892,26.115627 438.11714,35.8125 C 447.75583,43.959793 447.66629,42.795397 436.42964,42.71875 C 430.77857,42.71875 425.11195,42.71875 419.46089,42.71875 C 419.51488,47.921559 417.66738,55.036715 425.33589,52.625 C 432.4645,50.542469 432.9307,55.109121 432.08589,61 C 432.08589,68.270049 432.08589,75.542453 432.08589,82.8125 C 436.08045,81.565078 445.62829,85.878131 444.46089,79.46875 C 444.46089,70.523233 444.46089,61.570519 444.46089,52.625 C 448.19993,51.30755 457.44065,55.504999 457.11714,50.125 C 454.31234,40.98613 466.63445,40.901084 463.24214,50.28125 C 463.24214,61.122209 463.24214,71.971541 463.24214,82.8125 C 467.24803,81.565992 476.80311,85.875863 475.64839,79.46875 C 475.64839,67.221149 475.64839,54.966352 475.64839,42.71875 C 469.91429,42.194334 457.15206,44.661593 469.80464,38.9375 C 477.35396,29.859389 473.4082,17.410841 474.39839,6.59375 C 475.24694,3.1570586 473.32144,2.4775953 470.67964,2.53125 z M 428.02339,14.1875 C 418.35001,25.150049 408.06462,37.898222 398.86714,51.65625 C 401.57641,51.575445 404.35824,52.971373 406.58589,56.5625 C 418.6605,57.501803 415.91276,47.104246 406.30464,43.46875 C 423.14067,46.997228 433.45393,28.31473 428.02339,14.1875 z M 482.71089,19.15625 C 482.71089,27.0625 482.71089,34.96875 482.71089,42.875 C 485.23995,42.090775 489.96586,43.505756 492.83589,43.0625 L 482.71089,19.15625 z M 493.24214,44.03125 C 484.93343,48.582298 480.61709,59.63482 483.64839,69.21875 C 485.84708,80.971576 499.00949,85.554696 509.74214,82.96875 L 505.83589,73.6875 C 502.71493,75.327634 499.00054,74.323822 495.89839,68.0625 C 494.95419,63.932258 494.86635,57.742157 497.55464,54.1875 L 493.24214,44.03125 z M 407.83589,66.875 C 402.15818,67.180657 400.28959,80.377917 391.74214,71.75 C 390.56373,70.205998 389.77039,68.605525 389.33589,67 C 387.16639,70.809967 385.13681,74.674906 383.24214,78.5625 C 386.1565,81.545255 390.07906,83.450132 394.99214,83.40625 C 403.3999,88.22106 424.00526,72.047621 411.46089,68.25 C 410.08286,67.202943 408.88732,66.818397 407.83589,66.875 z"
       id="path3406" />
    <path
       style="fill:#2c2c2c;fill-opacity:0.54545456;fill-rule:evenodd;stroke:none;stroke-width:1px;stroke-linecap:butt;stroke-linejoin:miter;stroke-opacity:1"
       d="M 513.05464,4.25 L 507.71089,11.40625 C 509.58431,11.40625 511.46247,11.40625 513.33589,11.40625 C 513.69513,8.5659442 513.83767,5.9480347 513.05464,4.25 z M 506.64839,18.25 C 505.33704,18.227552 503.87449,18.3577 502.49214,18.40625 L 496.27339,26.78125 C 496.64436,26.597658 497.08104,26.487211 497.64839,26.5 C 501.55942,25.233954 510.80231,29.299757 510.67964,24 C 512.20264,19.22005 509.85053,18.304816 506.64839,18.25 z M 495.08589,28.34375 L 484.46089,42.625 C 488.96677,42.525919 496.14775,45.135579 495.14839,39.53125 C 496.05432,36.72896 494.24742,31.213509 495.08589,28.34375 z M 500.96089,41.9375 C 487.86303,42.386794 479.77967,56.987205 483.64839,69.21875 C 487.27592,88.609285 520.77604,88.474923 523.89839,68.875 C 527.52961,55.352225 518.77155,40.639327 503.64839,42.03125 C 502.73274,41.930331 501.83408,41.907547 500.96089,41.9375 z M 531.30464,42.71875 C 531.30464,56.083333 531.30464,69.447917 531.30464,82.8125 C 535.54248,81.779117 544.84768,85.814266 542.92964,78.625 C 542.92964,72.687897 542.92964,66.749607 542.92964,60.8125 C 547.94006,68.145833 552.95047,75.479167 557.96089,82.8125 C 558.56624,82.664892 559.29031,82.613625 560.05464,82.625 L 556.58589,62.875 C 552.01453,56.155193 547.4385,49.438557 542.86714,42.71875 C 539.01297,42.71875 535.15881,42.71875 531.30464,42.71875 z M 503.61714,51.40625 C 522.80825,52.94387 506.05257,88.557521 495.89839,68.0625 C 494.49778,61.935769 494.96241,51.292609 503.61714,51.40625 z M 475.64839,54.40625 L 463.24214,71.03125 C 463.24214,74.957323 463.24214,78.886427 463.24214,82.8125 C 467.24803,81.565992 476.80311,85.875863 475.64839,79.46875 C 475.64839,71.116219 475.64839,62.758782 475.64839,54.40625 z"
       id="path3408" />
    <path
       style="fill:#2c2c2c;fill-opacity:0.36818183;fill-rule:evenodd;stroke:none;stroke-width:1px;stroke-linecap:butt;stroke-linejoin:miter;stroke-opacity:1"
       d="M 280.30464,2.625 C 278.74183,2.6119168 277.01391,2.8041236 275.42964,2.8125 C 274.22918,8.5099642 273.11726,14.416065 272.14839,20.5 C 272.23571,24.323647 272.14328,28.558364 270.58589,31.3125 C 269.55756,39.162061 268.74888,47.18701 268.17964,55.25 C 270.67688,59.075303 269.86216,64.927693 267.46089,69.15625 C 267.29901,73.911699 267.21138,78.653454 267.24214,83.34375 C 279.52028,80.12189 285.8254,63.988423 279.64839,52.0625 C 276.87539,44.592896 264.08202,43.49961 277.39839,40.9375 C 287.9124,33.195403 283.41929,19.335859 284.39839,8.25 C 285.92683,3.4863778 283.51297,2.6518588 280.30464,2.625 z M 368.89839,2.71875 C 368.75062,2.7414648 368.61114,2.7541873 368.46089,2.78125 C 361.87556,2.78125 355.29623,2.78125 348.71089,2.78125 C 348.71089,16.145833 348.71089,29.510417 348.71089,42.875 C 353.86025,42.815769 360.54934,41.227669 358.11714,48.75 C 357.41917,56.594323 359.79905,65.183721 356.30464,72.375 C 344.52302,79.543621 343.49345,64.220414 344.42964,56.3125 C 343.34474,52.312851 346.61712,43.928322 342.74214,42.71875 C 338.11156,43.33014 329.70562,40.158996 332.05464,47.75 C 333.01939,58.583852 328.84585,71.723818 337.86714,80.03125 C 349.61232,88.17643 372.23598,83.032935 370.49214,65.78125 C 370.49214,58.091747 370.49214,50.408255 370.49214,42.71875 C 365.35016,42.791429 358.71217,44.349275 361.14839,36.84375 C 360.48257,30.992438 360.49165,25.841258 367.83589,28 C 373.94033,29.177156 378.16641,26.532977 380.42964,22.5625 C 377.09224,15.676543 373.28833,8.9723698 368.89839,2.71875 z M 292.71089,2.78125 C 292.71089,16.09375 292.71089,29.40625 292.71089,42.71875 C 285.64392,40.90496 289.76805,50.272727 288.67964,54.4375 C 288.67964,63.892649 288.67964,73.357351 288.67964,82.8125 C 300.04707,81.84704 314.24,86.251339 322.33589,75.84375 C 329.37534,64.614155 325.72064,43.113187 309.67964,42.8125 C 301.67519,44.936722 306.42148,34.621394 305.14839,30.15625 C 303.52903,23.409882 312.93983,27.69969 316.86714,26.5 C 322.49253,29.394722 322.57364,16.057275 317.33589,18.40625 C 313.41351,17.151552 303.89965,21.488319 305.14839,15.0625 C 303.53098,8.3193 312.94209,12.60698 316.86714,11.40625 C 323.99548,13.506518 323.93378,8.4072073 323.33589,2.78125 C 313.12756,2.78125 302.91922,2.78125 292.71089,2.78125 z M 364.02339,10.53125 C 372.35251,10.558019 372.04016,22.612152 361.14839,19.875 C 361.14839,16.895833 361.14839,13.916667 361.14839,10.9375 C 362.19247,10.653126 363.16176,10.528481 364.02339,10.53125 z M 339.74214,23.625 C 336.84671,23.646637 332.94098,24.674952 330.80464,23.9375 C 329.59749,23.9375 328.38679,23.9375 327.17964,23.9375 C 326.43989,29.786209 326.62688,34.693795 333.86714,32.5625 C 339.0256,32.604384 345.79473,34.231683 343.36714,26.6875 C 343.6283,24.191169 341.99414,23.608171 339.74214,23.625 z M 388.96089,43.3125 C 370.79948,49.551132 374.29592,83.591101 394.99214,83.40625 C 396.2072,84.102067 397.6859,84.361088 399.27339,84.28125 C 398.74439,81.19513 398.1464,77.951063 397.46089,74.625 C 395.91076,74.80921 394.06883,74.098594 391.74214,71.75 C 387.11742,65.690486 388.74708,58.624336 392.55464,54.6875 C 391.47031,50.928946 390.27909,47.125392 388.96089,43.3125 z M 303.64839,51.28125 C 315.86446,50.416437 317.51974,74.950796 304.08589,73.71875 C 298.05773,74.547816 302.3374,65.072582 301.05464,61.15625 C 301.05464,58.042844 301.05464,54.925904 301.05464,51.8125 C 301.96147,51.513958 302.83399,51.338904 303.64839,51.28125 z"
       id="path3410" />
    <path
       style="font-size:56px;font-style:normal;font-variant:normal;font-weight:normal;font-stretch:normal;fill:none;fill-opacity:1;stroke:#000000;stroke-width:1.5;stroke-linecap:butt;stroke-linejoin:miter;stroke-miterlimit:4;stroke-dasharray:none;stroke-opacity:1;font-family:Arial Black;-inkscape-font-specification:Arial Black"
       d="M 218.39839,2.09375 C 203.74538,0.46826532 194.21143,16.231086 198.37984,29.291026 C 198.77852,39.956215 219.55562,44.208667 202.08955,42.71875 C 196.5065,42.211019 200.74976,51.529598 199.42964,55.284788 C 199.42964,64.460692 199.42964,73.636596 199.42964,82.8125 C 203.44679,81.566838 213.00927,85.866504 211.86714,79.461557 C 213.19344,75.735829 208.92193,65.753401 214.56537,66.76759 C 219.72402,70.50964 221.36177,77.539742 224.83589,82.8125 C 228.58276,81.909759 238.3419,84.678518 238.07061,81.322012 C 236.67914,74.91733 226.48522,65.488422 228.39544,64.41017 C 244.78489,59.097393 229.40906,42.600467 227.61791,42.158859 C 245.13573,35.754702 242.66392,4.0273849 223.11273,2.4334944 L 220.82789,2.17877 L 218.39839,2.09375 z M 408.36714,2.09375 C 393.71673,0.47903755 384.23758,16.244046 388.36421,29.291026 C 388.01684,38.723242 407.359,43.36743 390.90516,42.789884 C 370.59448,47.208929 373.59764,83.601426 394.99884,83.410278 C 403.40661,88.225088 424.00678,72.060598 411.46241,68.262977 C 402.64305,61.561816 401.87245,81.97568 391.74214,71.75 C 382.44435,59.567633 398.39282,43.348583 406.59624,56.57305 C 418.67085,57.512354 415.91276,47.104246 406.30464,43.46875 C 423.97643,47.172386 434.46646,26.409654 427.10134,12.124625 C 423.8685,5.0046022 415.78827,1.8607549 408.36714,2.09375 z M 158.74214,2.78125 C 158.74214,29.458333 158.74214,56.135417 158.74214,82.8125 C 162.75929,81.566838 172.32177,85.866504 171.17964,79.461557 C 172.2069,75.251236 168.18461,65.991372 175.36832,67.9375 C 190.33868,72.492499 200.46981,49.44782 185.21477,43.52835 C 179.97857,40.81232 168.23565,46.663661 171.17964,36.854599 C 170.51382,31.003287 170.53729,25.841258 177.88153,28 C 196.61283,31.61192 197.63225,-0.68310906 178.4669,2.78125 C 171.89198,2.78125 165.31706,2.78125 158.74214,2.78125 z M 245.99214,2.78125 C 246.66507,13.778532 244.25686,25.309531 248.12886,35.815435 C 250.33558,41.308615 261.12186,42.520648 250.34343,44.206378 C 233.63939,52.3182 238.24556,83.541677 258.18732,83.365601 C 276.0665,87.521973 287.22144,66.653571 279.66383,52.062124 C 276.89083,44.592518 264.08102,43.504494 277.39739,40.942384 C 287.91139,33.200286 283.41929,19.34317 284.39839,8.2573108 C 286.84389,0.63551528 279.2271,3.0760043 274.34556,2.78125 C 269.45002,3.1172764 273.25777,12.156592 272.05464,16.185024 C 272.09524,23.328816 273.93656,36.919149 262.33099,33.770514 C 255.70603,29.552228 259.23618,20.503246 258.33589,13.846226 C 257.32805,9.7695115 261.31913,0.69388336 254.14721,2.78125 C 251.42885,2.78125 248.7105,2.78125 245.99214,2.78125 z M 292.71089,2.78125 C 292.71089,16.09375 292.71089,29.40625 292.71089,42.71875 C 285.64392,40.90496 289.76805,50.282279 288.67964,54.447052 C 288.67964,63.902201 288.67964,73.357351 288.67964,82.8125 C 300.04707,81.84704 314.24583,86.265992 322.34172,75.858403 C 329.38117,64.628811 325.71171,43.110524 309.67071,42.809837 C 301.66625,44.934059 306.42148,34.617856 305.14839,30.152712 C 303.52903,23.406344 312.94938,27.69969 316.87669,26.5 C 322.50208,29.394722 322.56645,16.057275 317.3287,18.40625 C 313.40631,17.151552 303.89965,21.481126 305.14839,15.055307 C 303.53098,8.3121074 312.95164,12.60698 316.87669,11.40625 C 324.00503,13.506518 323.93378,8.4072073 323.33589,2.78125 C 313.12756,2.78125 302.91922,2.78125 292.71089,2.78125 z M 348.71089,2.78125 C 348.71089,16.145833 348.71089,29.510417 348.71089,42.875 C 353.86025,42.815769 360.54934,41.21682 358.11714,48.739151 C 357.41917,56.583474 359.79905,65.183721 356.30464,72.375 C 344.52302,79.543621 343.49345,64.204848 344.42964,56.296934 C 343.34474,52.297283 346.62915,43.928322 342.75417,42.71875 C 338.12358,43.33014 329.70562,40.154161 332.05464,47.745165 C 333.01939,58.579019 328.85952,71.711125 337.88081,80.018557 C 349.62599,88.163735 372.23598,83.038949 370.49214,65.787264 C 370.49214,58.097759 370.49214,50.408255 370.49214,42.71875 C 365.35016,42.791429 358.71217,44.360124 361.14839,36.854599 C 360.48257,31.003287 360.50604,25.841258 367.85028,28 C 386.57649,31.611083 387.65679,-0.67517956 368.4669,2.78125 C 361.88157,2.78125 355.29623,2.78125 348.71089,2.78125 z M 435.96089,2.78125 C 436.63665,13.77942 434.21096,25.315422 438.12886,35.815435 C 447.76755,43.962727 447.65072,42.795397 436.41407,42.71875 C 430.76301,42.71875 425.11195,42.71875 419.46089,42.71875 C 419.51488,47.921559 417.65653,55.036715 425.32504,52.625 C 432.45364,50.542469 432.9307,55.11148 432.08589,61.002359 C 432.08589,68.272406 432.08589,75.542453 432.08589,82.8125 C 436.08045,81.565078 445.62829,85.870938 444.46089,79.461557 C 444.46089,70.516038 444.46089,61.570519 444.46089,52.625 C 448.19993,51.30755 457.44065,55.491791 457.11714,50.111792 C 454.31234,40.972924 466.63445,40.909457 463.24214,50.289623 C 463.24214,61.130582 463.24214,71.971541 463.24214,82.8125 C 467.24803,81.565992 476.80311,85.86867 475.64839,79.461557 C 475.64839,67.213954 475.64839,54.966352 475.64839,42.71875 C 469.91429,42.194334 457.15206,44.661593 469.80464,38.9375 C 477.35396,29.859389 473.4082,17.39893 474.39839,6.581839 C 476.09548,-0.29154364 466.68935,3.9382832 462.67009,2.78125 C 461.1616,6.5147462 462.45413,13.049254 462.02339,17.860496 C 464.50948,26.584895 457.57829,41.650543 448.77533,30.183603 C 447.83339,21.108734 448.5686,11.908945 448.33589,2.78125 C 444.21089,2.78125 440.08589,2.78125 435.96089,2.78125 z M 482.71089,2.78125 C 482.71089,16.145833 482.71089,29.510417 482.71089,42.875 C 486.72804,41.629338 496.29052,45.929004 495.14839,39.524057 C 496.41366,35.610243 492.36307,26.38056 497.6616,26.5 C 501.57263,25.233954 510.80231,29.286549 510.67964,23.986792 C 513.11644,16.338872 505.59857,18.645616 500.62681,18.40625 C 494.52048,22.042582 492.52666,10.938768 497.6616,11.40625 C 502.88636,11.40625 508.11113,11.40625 513.33589,11.40625 C 514.07564,5.5575414 513.87426,0.64995462 506.634,2.78125 C 498.65963,2.78125 490.68526,2.78125 482.71089,2.78125 z M 171.17964,10.9375 C 182.30116,7.8982837 183.18004,22.900655 171.17964,19.875 C 171.17964,16.895833 171.17964,13.916667 171.17964,10.9375 z M 361.14839,10.9375 C 372.28523,7.9041744 373.1669,22.895306 361.14839,19.875 C 361.14839,16.895833 361.14839,13.916667 361.14839,10.9375 z M 218.36714,11.46875 C 237.56722,13.007948 220.788,48.610831 210.65034,28.120128 C 209.2596,21.983571 209.67036,11.333528 218.36714,11.46875 z M 408.33589,11.46875 C 427.57044,13.017543 410.78766,48.617461 400.61909,28.120128 C 399.21847,21.993391 399.68116,11.355112 408.33589,11.46875 z M 327.17964,23.9375 C 326.43989,29.786209 326.64127,34.693795 333.88153,32.5625 C 339.04,32.604384 345.79473,34.242532 343.36714,26.698349 C 343.96408,20.992449 334.59904,25.248525 330.8011,23.9375 C 329.59395,23.9375 328.38679,23.9375 327.17964,23.9375 z M 503.64839,42.03125 C 488.99798,40.41654 479.51883,56.181544 483.64546,69.228525 C 487.27299,88.619058 520.77699,88.463214 523.89934,68.863291 C 527.53056,55.340514 518.77155,40.639327 503.64839,42.03125 z M 531.30464,42.71875 C 531.30464,56.083333 531.30464,69.447917 531.30464,82.8125 C 535.54248,81.779117 544.84768,85.813087 542.92964,78.623821 C 542.92964,72.686714 542.92964,66.749607 542.92964,60.8125 C 547.94006,68.145833 552.95047,75.479167 557.96089,82.8125 C 562.20713,81.7771 571.52669,85.815013 569.61714,78.623821 C 569.61714,66.655464 569.61714,54.687107 569.61714,42.71875 C 565.3709,43.75415 556.05134,39.716237 557.96089,46.907429 C 557.96089,52.907036 557.96089,58.906643 557.96089,64.90625 C 552.92964,57.510417 547.89839,50.114583 542.86714,42.71875 C 539.01297,42.71875 535.15881,42.71875 531.30464,42.71875 z M 211.86714,50.8125 C 221.61161,47.299886 228.39093,60.468316 214.57268,58.96875 C 209.4739,60.554108 212.82097,53.486286 211.86714,50.8125 z M 171.17964,50.875 C 182.30116,47.835783 183.18004,62.838152 171.17964,59.8125 C 171.17964,56.833333 171.17964,53.854167 171.17964,50.875 z M 260.92964,51.40625 C 280.12296,53.003571 263.3371,88.540622 253.18158,68.057628 C 251.7745,61.914381 252.25186,51.275833 260.92964,51.40625 z M 503.61714,51.40625 C 522.80825,52.94387 506.05451,88.552649 495.90033,68.057628 C 494.49973,61.930894 494.96241,51.292609 503.61714,51.40625 z M 301.05464,51.8125 C 315.56393,47.035832 318.41533,75.032932 304.08589,73.71875 C 298.05773,74.547816 302.3374,65.069044 301.05464,61.152712 C 301.05464,58.039308 301.05464,54.925904 301.05464,51.8125 z"
       id="path3387" />
  </g>
</svg>
